<svg width="45" height="45" viewBox="0 0 45 45" fill="none" xmlns="http://www.w3.org/2000/svg">
<path d="M44.1475 16.7695C44.4902 16.4971 45 16.752 45 17.1826V35.1562C45 37.4854 43.1104 39.375 40.7812 39.375H4.21875C1.88965 39.375 0 37.4854 0 35.1562V17.1914C0 16.752 0.500977 16.5059 0.852539 16.7783C2.82129 18.3076 5.43164 20.25 14.3965 26.7627C16.251 28.1162 19.3799 30.9639 22.5 30.9463C25.6377 30.9727 28.8281 28.0635 30.6123 26.7627C39.5771 20.25 42.1787 18.2988 44.1475 16.7695ZM22.5 28.125C24.5391 28.1602 27.4746 25.5586 28.9512 24.4863C40.6143 16.0225 41.502 15.2842 44.1914 13.1748C44.7012 12.7793 45 12.1641 45 11.5137V9.84375C45 7.51465 43.1104 5.625 40.7812 5.625H4.21875C1.88965 5.625 0 7.51465 0 9.84375V11.5137C0 12.1641 0.298828 12.7705 0.808594 13.1748C3.49805 15.2754 4.38574 16.0225 16.0488 24.4863C17.5254 25.5586 20.4609 28.1602 22.5 28.125Z" fill="#FFA500"/>
</svg>
