<svg width="45" height="45" viewBox="0 0 45 45" fill="none" xmlns="http://www.w3.org/2000/svg">
<path d="M39.375 2.8125H5.61621C4.06934 2.8125 2.8125 4.08691 2.8125 5.65137V39.3486C2.8125 40.9131 4.06934 42.1875 5.61621 42.1875H39.375C40.9219 42.1875 42.1875 40.9131 42.1875 39.3486V5.65137C42.1875 4.08691 40.9219 2.8125 39.375 2.8125ZM14.7129 36.5625H8.87695V17.7715H14.7217V36.5625H14.7129ZM11.7949 15.2051C9.92285 15.2051 8.41113 13.6846 8.41113 11.8213C8.41113 9.95801 9.92285 8.4375 11.7949 8.4375C13.6582 8.4375 15.1787 9.95801 15.1787 11.8213C15.1787 13.6934 13.667 15.2051 11.7949 15.2051ZM36.5889 36.5625H30.7529V27.4219C30.7529 25.2422 30.709 22.4385 27.7207 22.4385C24.6797 22.4385 24.2139 24.8115 24.2139 27.2637V36.5625H18.3779V17.7715H23.9766V20.3379H24.0557C24.8379 18.8613 26.7451 17.3057 29.584 17.3057C35.4902 17.3057 36.5889 21.1992 36.5889 26.2617V36.5625Z" fill="#0E768A"/>
</svg>
