<svg width="30" height="30" viewBox="0 0 30 30" fill="none" xmlns="http://www.w3.org/2000/svg">
    <path d="M24.2878 11.0821C24.8859 10.7372 25.0904 9.9725 24.7449 9.375C22.7418 5.90513 19.0076 3.75 15 3.75C10.8701 3.75 7.26263 5.99375 5.30588 9.31975C5.29188 9.34088 5.27 9.35275 5.25713 9.375C5.24688 9.39262 5.24763 9.41275 5.23838 9.43062C4.29663 11.0749 3.75 12.9731 3.75 15C3.75 17.0269 4.29663 18.9251 5.2385 20.5694C5.24775 20.5872 5.247 20.6074 5.25725 20.625C5.27013 20.6471 5.292 20.6591 5.30588 20.6801C6.28038 22.3366 7.6635 23.7197 9.32013 24.6943C9.34113 24.708 9.353 24.73 9.375 24.7428C9.3925 24.7529 9.4125 24.7521 9.43038 24.7614C11.0746 25.7034 12.973 26.25 15 26.25C15.6904 26.25 16.25 25.6903 16.25 25C16.25 24.3096 15.6904 23.75 15 23.75C10.1751 23.75 6.25 19.8249 6.25 15C6.25 10.1751 10.1751 6.25 15 6.25C18.1171 6.25 21.0218 7.92663 22.5806 10.625C22.9248 11.2225 23.689 11.4276 24.2878 11.0821Z" fill="#4285F4"/>
    <path d="M25 16.25C25.6904 16.25 26.25 15.6904 26.25 15C26.25 14.3096 25.6904 13.75 25 13.75C24.3096 13.75 23.75 14.3096 23.75 15C23.75 15.6904 24.3096 16.25 25 16.25Z" fill="#4285F4"/>
    <path d="M23.0352 21.0825C23.6331 21.4276 24.3975 21.2227 24.7428 20.625C25.0879 20.0271 24.883 19.2626 24.2852 18.9175C23.6874 18.5722 22.9229 18.7771 22.5778 19.375C22.2325 19.9729 22.4374 20.7372 23.0352 21.0825ZM19.375 22.5776C18.7771 22.9229 18.5722 23.6874 18.9175 24.2851C19.2626 24.883 20.0272 25.0879 20.625 24.7426C21.2229 24.3975 21.4277 23.633 21.0825 23.0351C20.7374 22.4374 19.9729 22.2325 19.375 22.5776ZM15 10C14.3097 10 13.75 10.5597 13.75 11.25V15C13.75 15.3314 13.8819 15.6494 14.1163 15.8837L16.6163 18.3837C16.8604 18.6279 17.1801 18.75 17.5 18.75C17.8199 18.75 18.1396 18.6279 18.3837 18.3837C18.872 17.8955 18.872 17.1045 18.3837 16.6161L16.25 14.4824V11.25C16.25 10.5597 15.6903 10 15 10Z" fill="#4285F4"/>
</svg>
