<svg width="27" height="26" viewBox="0 0 27 26" fill="none" xmlns="http://www.w3.org/2000/svg">
    <path d="M24.75 0H2.25C1.00781 0 0 1.0918 0 2.4375V18.6875C0 20.0332 1.00781 21.125 2.25 21.125H11.25L10.5 23.5625H7.125C6.50156 23.5625 6 24.1059 6 24.7812C6 25.4566 6.50156 26 7.125 26H19.875C20.4984 26 21 25.4566 21 24.7812C21 24.1059 20.4984 23.5625 19.875 23.5625H16.5L15.75 21.125H24.75C25.9922 21.125 27 20.0332 27 18.6875V2.4375C27 1.0918 25.9922 0 24.75 0ZM24 17.875H3V3.25H24V17.875Z" fill="#4285F4"/>
</svg>
