<svg width="29" height="29" viewBox="0 0 29 29" fill="none" xmlns="http://www.w3.org/2000/svg">
<g clip-path="url(#clip0_10_121)">
<path d="M10.4536 14.8344C10.6367 15.6272 9.76698 16.2297 9.09041 15.8068L6.78309 14.365L3.90195 18.9757C3.14954 20.1796 4.0192 21.75 5.43816 21.75H8.38279C8.75815 21.75 9.06248 22.0544 9.06248 22.4297V24.6953C9.06248 25.0707 8.75815 25.375 8.38279 25.375H5.444C1.17703 25.375 -1.42663 20.6711 0.832996 17.0557L3.71159 12.4458L1.4049 11.0044C0.720621 10.5769 0.897056 9.53395 1.68125 9.35287L7.92514 7.91137C8.41287 7.79876 8.89941 8.10287 9.01201 8.59049L10.4536 14.8344ZM16.0362 4.47396L18.3748 8.21655L16.0673 9.65845C15.3847 10.0848 15.5575 11.1284 16.3436 11.31L22.5875 12.7515C23.0787 12.8647 23.5626 12.5567 23.6744 12.0724L25.1159 5.82846C25.297 5.04433 24.4368 4.42836 23.7527 4.85606L21.4481 6.29609L19.111 2.55316C16.9858 -0.847145 12.0191 -0.854961 9.88898 2.55316L8.87155 4.18249C8.67274 4.50081 8.76959 4.92 9.08791 5.11893L11.0091 6.31942C11.3274 6.51835 11.7468 6.42155 11.9457 6.10323L12.963 4.47521C13.6831 3.32308 15.3404 3.36074 16.0362 4.47396ZM28.1667 17.0557L26.6082 14.5598C26.4094 14.2413 25.9899 14.1444 25.6715 14.3434L23.7536 15.5418C23.4353 15.7407 23.3384 16.1601 23.5373 16.4784L25.0986 18.977C25.8495 20.1784 24.9821 21.7501 23.5616 21.7501H18.125V19.0324C18.125 18.2274 17.1484 17.8213 16.578 18.3916L12.0467 22.9218C11.6928 23.2757 11.6928 23.8495 12.0467 24.2034L16.578 28.734C17.1445 29.3007 18.125 28.9037 18.125 28.0932V25.375H23.5557C27.8193 25.375 30.4282 20.674 28.1667 17.0557Z" fill="#4285F4"/>
</g>
<defs>
<clipPath id="clip0_10_121">
<rect width="29" height="29" fill="white"/>
</clipPath>
</defs>
</svg>
