<svg width="29" height="29" viewBox="0 0 29 29" fill="none" xmlns="http://www.w3.org/2000/svg">
    <path d="M9.197 19.303C7.79072 17.8964 7.00049 15.989 7 14C7 9.886 10.386 6.5 14.5 6.5C18.614 6.5 22 9.886 22 14C21.9995 15.989 21.2093 17.8964 19.803 19.303" stroke="#4285F4" stroke-width="2" stroke-miterlimit="10"/>
    <path d="M12.025 16.475C11.3688 15.8184 11.0002 14.9282 11 14C11 12.08 12.58 10.5 14.5 10.5C16.42 10.5 18 12.08 18 14C18 14.928 17.631 15.819 16.975 16.475" stroke="#4285F4" stroke-width="2" stroke-miterlimit="10"/>
    <path d="M6.368 22.132C4.21174 19.975 3.00029 17.05 3 14C3 7.691 8.191 2.5 14.5 2.5C20.809 2.5 26 7.691 26 14C26 17.049 24.788 19.976 22.632 22.132" stroke="#4285F4" stroke-width="2" stroke-miterlimit="10"/>
    <path d="M14.5 17.308L23.692 26.5H5.30798L14.5 17.308Z" fill="#34A853"/>
</svg>
